<svg width="18" height="20" viewBox="0 0 26 26" fill="none" xmlns="http://www.w3.org/2000/svg">
<path d="M18.2 4.55005C18.5447 4.55005 18.8754 4.68701 19.1192 4.93081C19.363 5.17461 19.5 5.50527 19.5 5.85005V13H18.2V5.85005H6.49995V20.15H13.65V21.45H6.49995C6.15517 21.45 5.82451 21.3131 5.58071 21.0693C5.33691 20.8255 5.19995 20.4948 5.19995 20.15V5.85005C5.19995 5.50527 5.33691 5.17461 5.58071 4.93081C5.82451 4.68701 6.15517 4.55005 6.49995 4.55005H18.2Z" fill="#718096"/>
<path d="M14.8817 11.9944H8.9563C8.82201 11.9944 8.69322 11.9411 8.59826 11.8461C8.5033 11.7511 8.44995 11.6223 8.44995 11.4881C8.44995 11.3538 8.5033 11.225 8.59826 11.13C8.69322 11.035 8.82201 10.9817 8.9563 10.9817H14.8817C14.9482 10.9817 15.014 10.9948 15.0755 11.0202C15.1369 11.0457 15.1927 11.083 15.2397 11.13C15.2868 11.177 15.3241 11.2328 15.3495 11.2943C15.375 11.3557 15.3881 11.4216 15.3881 11.4881C15.3881 11.5545 15.375 11.6204 15.3495 11.6818C15.3241 11.7433 15.2868 11.7991 15.2397 11.8461C15.1927 11.8931 15.1369 11.9304 15.0755 11.9559C15.014 11.9813 14.9482 11.9944 14.8817 11.9944ZM14.8817 14.6627H8.9563C8.82201 14.6627 8.69322 14.6093 8.59826 14.5143C8.5033 14.4194 8.44995 14.2906 8.44995 14.1563C8.44995 14.022 8.5033 13.8932 8.59826 13.7983C8.69322 13.7033 8.82201 13.65 8.9563 13.65H14.8817C15.016 13.65 15.1448 13.7033 15.2397 13.7983C15.3347 13.8932 15.3881 14.022 15.3881 14.1563C15.3881 14.2906 15.3347 14.4194 15.2397 14.5143C15.1448 14.6093 15.016 14.6627 14.8817 14.6627ZM12.9317 17.2627H8.9563C8.82201 17.2627 8.69322 17.2093 8.59826 17.1143C8.5033 17.0194 8.44995 16.8906 8.44995 16.7563C8.44995 16.622 8.5033 16.4932 8.59826 16.3983C8.69322 16.3033 8.82201 16.25 8.9563 16.25H12.9317C13.066 16.25 13.1948 16.3033 13.2897 16.3983C13.3847 16.4932 13.4381 16.622 13.4381 16.7563C13.4381 16.8906 13.3847 17.0194 13.2897 17.1143C13.1948 17.2093 13.066 17.2627 12.9317 17.2627ZM10.9817 9.46265H8.9563C8.82201 9.46265 8.69322 9.4093 8.59826 9.31435C8.5033 9.21939 8.44995 9.09059 8.44995 8.9563C8.44995 8.82201 8.5033 8.69322 8.59826 8.59826C8.69322 8.5033 8.82201 8.44995 8.9563 8.44995H10.9817C11.116 8.44995 11.2448 8.5033 11.3397 8.59826C11.4347 8.69322 11.4881 8.82201 11.4881 8.9563C11.4881 9.09059 11.4347 9.21939 11.3397 9.31435C11.2448 9.4093 11.116 9.46265 10.9817 9.46265Z" fill="#989FAB"/>
<path d="M22.3691 16.25L19.5 13.3809L14.3 18.5809V21.45H17.1691L22.3691 16.25ZM19.5 15.2197L20.5303 16.25L16.6296 20.15H15.6V19.1191L19.5 15.2197Z" fill="#03A9F5"/>
</svg>
