<svg width="18" height="20" viewBox="0 0 19 18" fill="none" xmlns="http://www.w3.org/2000/svg">
<path d="M13 0C13.3448 0 13.6754 0.136964 13.9192 0.380761C14.163 0.624559 14.3 0.955219 14.3 1.3V16.9H13V15.6V1.3H1.3V15.6H13V16.9H1.3C0.955219 16.9 0.624558 16.763 0.380761 16.5192C0.136964 16.2754 0 15.9448 0 15.6V1.3C0 0.955219 0.136964 0.624559 0.380761 0.380761C0.624558 0.136964 0.955219 0 1.3 0H13Z" fill="#718096"/>
<path d="M9.68175 7.44435H3.75635C3.62206 7.44435 3.49327 7.39101 3.39831 7.29605C3.30335 7.20109 3.25 7.0723 3.25 6.938C3.25 6.80371 3.30335 6.67492 3.39831 6.57996C3.49327 6.485 3.62206 6.43165 3.75635 6.43165H9.68175C9.74825 6.43165 9.81409 6.44475 9.87552 6.4702C9.93696 6.49564 9.99277 6.53294 10.0398 6.57996C10.0868 6.62698 10.1241 6.6828 10.1496 6.74423C10.175 6.80566 10.1881 6.87151 10.1881 6.938C10.1881 7.0045 10.175 7.07034 10.1496 7.13177C10.1241 7.19321 10.0868 7.24903 10.0398 7.29605C9.99277 7.34307 9.93696 7.38036 9.87552 7.40581C9.81409 7.43126 9.74825 7.44435 9.68175 7.44435ZM9.68175 10.1126H3.75635C3.62206 10.1126 3.49327 10.0593 3.39831 9.9643C3.30335 9.86934 3.25 9.74055 3.25 9.60625C3.25 9.47196 3.30335 9.34317 3.39831 9.24821C3.49327 9.15325 3.62206 9.0999 3.75635 9.0999H9.68175C9.81604 9.0999 9.94483 9.15325 10.0398 9.24821C10.1348 9.34317 10.1881 9.47196 10.1881 9.60625C10.1881 9.74055 10.1348 9.86934 10.0398 9.9643C9.94483 10.0593 9.81604 10.1126 9.68175 10.1126ZM7.73175 12.7126H3.75635C3.62206 12.7126 3.49327 12.6593 3.39831 12.5643C3.30335 12.4693 3.25 12.3405 3.25 12.2063C3.25 12.072 3.30335 11.9432 3.39831 11.8482C3.49327 11.7533 3.62206 11.6999 3.75635 11.6999H7.73175C7.86604 11.6999 7.99483 11.7533 8.08979 11.8482C8.18475 11.9432 8.2381 12.072 8.2381 12.2063C8.2381 12.3405 8.18475 12.4693 8.08979 12.5643C7.99483 12.6593 7.86604 12.7126 7.73175 12.7126ZM5.78175 4.9126H3.75635C3.62206 4.9126 3.49327 4.85926 3.39831 4.7643C3.30335 4.66934 3.25 4.54055 3.25 4.40625C3.25 4.27196 3.30335 4.14317 3.39831 4.04821C3.49327 3.95325 3.62206 3.8999 3.75635 3.8999H5.78175C5.91604 3.8999 6.04483 3.95325 6.13979 4.04821C6.23475 4.14317 6.2881 4.27196 6.2881 4.40625C6.2881 4.54055 6.23475 4.66934 6.13979 4.7643C6.04483 4.85926 5.91604 4.9126 5.78175 4.9126Z" fill="#989FAB"/>
<path fill-rule="evenodd" clip-rule="evenodd" d="M18.05 15.825L16.925 17.325L15.8 15.825V9.07495H18.05V15.825Z" fill="#03A9F5"/>
<path fill-rule="evenodd" clip-rule="evenodd" d="M16.55 6.44995H17.3C17.7143 6.44995 18.05 6.78573 18.05 7.19995V8.69995H15.8V7.19995C15.8 6.78573 16.1358 6.44995 16.55 6.44995Z" fill="#03A9F5"/>
</svg>
