<svg width="18" height="20" viewBox="0 0 18 18" fill="none" xmlns="http://www.w3.org/2000/svg">
<path d="M1.72509e-07 7.7442C1.72509e-07 8.09098 0.281127 8.37211 0.627907 8.37211C0.974688 8.37211 1.25581 8.09098 1.25581 7.7442H1.72509e-07ZM1.52666 12.0361C1.39395 11.7157 1.02664 11.5636 0.706262 11.6963C0.385878 11.829 0.233732 12.1962 0.366438 12.5166L1.52666 12.0361ZM10.4501 17.1793L10.904 16.4126L9.82323 15.7729L9.36938 16.5397L10.4501 17.1793ZM7.09601 16.4126L7.54987 17.1793L8.63054 16.5397L8.17669 15.7729L7.09601 16.4126ZM9.36938 16.5397C9.20805 16.8123 8.79195 16.8123 8.63054 16.5397L7.54987 17.1793C8.19754 18.2736 9.80246 18.2736 10.4501 17.1793L9.36938 16.5397ZM7.74419 1.25582H10.2558V1.72509e-07H7.74419V1.25582ZM16.7442 7.7442V8.58142H18V7.7442H16.7442ZM5.48581 14.2256C4.43475 14.2074 3.88401 14.1406 3.45231 13.9618L2.97173 15.122C3.64566 15.4011 4.41325 15.463 5.46418 15.4811L5.48581 14.2256ZM0.366438 12.5166C0.855025 13.6962 1.79218 14.6334 2.97173 15.122L3.45231 13.9618C2.58046 13.6006 1.88779 12.908 1.52666 12.0361L0.366438 12.5166ZM16.7442 8.58142C16.7442 9.56522 16.7439 10.2717 16.7058 10.8291C16.6682 11.3809 16.5957 11.7407 16.4733 12.0361L17.6336 12.5166C17.8299 12.0428 17.9167 11.5303 17.9587 10.9146C18.0003 10.3045 18 9.54806 18 8.58142H16.7442ZM12.5358 15.4811C13.5867 15.463 14.3544 15.4011 15.0282 15.122L14.5477 13.9618C14.116 14.1406 13.5652 14.2074 12.5142 14.2256L12.5358 15.4811ZM16.4733 12.0361C16.1122 12.908 15.4196 13.6006 14.5477 13.9618L15.0282 15.122C16.2078 14.6334 17.145 13.6962 17.6336 12.5166L16.4733 12.0361ZM10.2558 1.25582C11.6382 1.25582 12.631 1.25648 13.4053 1.3301C14.1704 1.40284 14.6571 1.54234 15.0452 1.78015L15.7014 0.709386C15.0827 0.330339 14.3811 0.161406 13.5242 0.0799287C12.6766 -0.000661262 11.6139 1.72509e-07 10.2558 1.72509e-07V1.25582ZM18 7.7442C18 6.38609 18.0007 5.32341 17.92 4.47582C17.8386 3.6189 17.6696 2.91722 17.2906 2.29867L16.2198 2.95484C16.4577 3.34291 16.5972 3.82969 16.6699 4.59469C16.7435 5.36904 16.7442 6.36177 16.7442 7.7442H18ZM15.0452 1.78015C15.524 2.07354 15.9265 2.47607 16.2198 2.95484L17.2906 2.29867C16.8937 1.65093 16.3491 1.10632 15.7014 0.709386L15.0452 1.78015ZM7.74419 1.72509e-07C6.38607 1.72509e-07 5.3234 -0.000661262 4.47581 0.0799287C3.61889 0.161406 2.91721 0.330339 2.29867 0.709386L2.95483 1.78015C3.3429 1.54234 3.82968 1.40284 4.59468 1.3301C5.36902 1.25648 6.36175 1.25582 7.74419 1.25582V1.72509e-07ZM1.25581 7.7442C1.25581 6.36177 1.25648 5.36904 1.3301 4.59469C1.40284 3.82969 1.54233 3.34291 1.78014 2.95484L0.709384 2.29867C0.330338 2.91722 0.161406 3.6189 0.0799285 4.47582C-0.000661261 5.32341 1.72509e-07 6.38609 1.72509e-07 7.7442H1.25581ZM2.29867 0.709386C1.65093 1.10632 1.10632 1.65093 0.709384 2.29867L1.78014 2.95484C2.07353 2.47607 2.47606 2.07354 2.95483 1.78015L2.29867 0.709386ZM8.17669 15.7729C8.00673 15.4857 7.85754 15.2323 7.71246 15.0332C7.55958 14.8236 7.38435 14.6348 7.14128 14.4934L6.5099 15.579C6.5496 15.602 6.60367 15.6441 6.69755 15.7729C6.79916 15.9124 6.91397 16.105 7.09601 16.4126L8.17669 15.7729ZM5.46418 15.4811C5.83179 15.4875 6.06464 15.4922 6.24213 15.5118C6.40799 15.5302 6.47228 15.5571 6.5099 15.579L7.14128 14.4934C6.89618 14.3508 6.64113 14.2925 6.38035 14.2636C6.13121 14.236 5.83012 14.2315 5.48581 14.2256L5.46418 15.4811ZM10.904 16.4126C11.086 16.105 11.2008 15.9124 11.3024 15.7729C11.3963 15.6441 11.4503 15.602 11.49 15.579L10.8587 14.4934C10.6156 14.6348 10.4403 14.8236 10.2875 15.0332C10.1425 15.2323 9.99327 15.4857 9.82323 15.7729L10.904 16.4126ZM12.5142 14.2256C12.1698 14.2315 11.8688 14.236 11.6196 14.2636C11.3588 14.2925 11.1038 14.3508 10.8587 14.4934L11.49 15.579C11.5277 15.5571 11.592 15.5302 11.7579 15.5118C11.9353 15.4922 12.1682 15.4875 12.5358 15.4811L12.5142 14.2256Z" fill="#718096"/>
<path d="M6 8H6.00675M8.99325 8H9M11.9933 8H12" stroke="#03A9F5" stroke-width="2" stroke-linecap="round" stroke-linejoin="round"/>
</svg>
