<svg width="18" height="20" viewBox="0 0 19 19" fill="none" xmlns="http://www.w3.org/2000/svg">
<g clip-path="url(#clip0_158_636)">
<path d="M11.894 17.4166C12.886 17.4166 13.7373 17.3645 14.4485 17.2064C15.1688 17.0464 15.7932 16.7673 16.2803 16.2803C16.7673 15.7932 17.0464 15.1688 17.2064 14.4485C17.3645 13.7373 17.4166 12.886 17.4166 11.894V9.49996C17.4166 8.62548 16.7078 7.91663 15.8333 7.91663H9.49996C8.62548 7.91663 7.91663 8.62548 7.91663 9.49996V15.8333C7.91663 16.7078 8.62548 17.4166 9.49996 17.4166H11.894Z" fill="#03A9F5"/>
<path d="M1.58337 11.894C1.58337 12.886 1.6355 13.7373 1.79358 14.4485C1.95365 15.1688 2.23271 15.7932 2.71976 16.2803C3.20681 16.7673 3.83118 17.0464 4.55145 17.2064C4.62043 17.2217 4.68976 17.2361 4.75937 17.2496C5.61794 17.4154 6.33337 16.6888 6.33337 15.8143V9.49996C6.33337 8.62548 5.62449 7.91663 4.75004 7.91663H3.16671C2.29226 7.91663 1.58337 8.62548 1.58337 9.49996V11.894Z" fill="#03A9F5"/>
<path d="M7.10593 1.58337C6.11386 1.58337 5.26262 1.6355 4.55134 1.79358C3.83106 1.95365 3.20669 2.23271 2.71964 2.71976C2.23259 3.20681 1.95354 3.83118 1.79346 4.55145C1.78032 4.6106 1.76795 4.66993 1.75634 4.72944C1.58662 5.59924 2.32658 6.33337 3.21277 6.33337H15.8143C16.6888 6.33337 17.4154 5.61794 17.2496 4.75937C17.2361 4.68976 17.2217 4.62043 17.2064 4.55145C17.0463 3.83118 16.7673 3.20681 16.2802 2.71976C15.7931 2.23271 15.1688 1.95365 14.4485 1.79358C13.7372 1.6355 12.886 1.58337 11.8939 1.58337H7.10593Z" fill="#03A9F5"/>
</g>
<defs>
<clipPath id="clip0_158_636">
<rect width="19" height="19" fill="white"/>
</clipPath>
</defs>
</svg>
