<svg width="18" height="20" viewBox="0 0 18 20" fill="none" xmlns="http://www.w3.org/2000/svg">
<path d="M8.75 0C3.91667 0 0 3.91667 0 8.75C0 13.3333 4.16667 17.0833 8.75 17.0833V20C14.0417 17.4167 17.5 13.1667 17.5 8.75C17.5 3.91667 13.5833 0 8.75 0ZM8.33333 10C8.33333 11.1667 7.58333 12.0833 6.66667 12.0833V10H4.58333V6.25H8.33333V10ZM13.3333 10C13.3333 11.1667 12.5833 12.0833 11.6667 12.0833V10H9.58333V6.25H13.3333V10Z" fill="#718096"/>
<path d="M8.75 0C3.91667 0 0 3.91667 0 8.75C0 13.3333 4.16667 17.0833 8.75 17.0833V20C14.0417 17.4167 17.5 13.1667 17.5 8.75C17.5 3.91667 13.5833 0 8.75 0ZM8.33333 10C8.33333 11.1667 7.58333 12.0833 6.66667 12.0833V10H4.58333V6.25H8.33333V10ZM13.3333 10C13.3333 11.1667 12.5833 12.0833 11.6667 12.0833V10H9.58333V6.25H13.3333V10Z" fill="black" fill-opacity="0.2"/>
</svg>
