<svg width="18" height="20" viewBox="0 0 26 26" fill="none" xmlns="http://www.w3.org/2000/svg">
<path d="M12.9429 3.88184C12.1054 3.88184 11.3022 4.21452 10.71 4.8067C10.1178 5.39889 9.78516 6.20206 9.78516 7.03954C9.78516 7.87701 10.1178 8.68018 10.71 9.27237C11.3022 9.86455 12.1054 10.1972 12.9429 10.1972C13.7803 10.1972 14.5835 9.86455 15.1757 9.27237C15.7679 8.68018 16.1006 7.87701 16.1006 7.03954C16.1006 6.20206 15.7679 5.39889 15.1757 4.8067C14.5835 4.21452 13.7803 3.88184 12.9429 3.88184ZM12.9429 5.21824C13.4259 5.21824 13.8892 5.41012 14.2307 5.75168C14.5723 6.09324 14.7642 6.5565 14.7642 7.03954C14.7642 7.52257 14.5723 7.98583 14.2307 8.32739C13.8892 8.66895 13.4259 8.86084 12.9429 8.86084C12.4598 8.86084 11.9966 8.66895 11.655 8.32739C11.3134 7.98583 11.1216 7.52257 11.1216 7.03954C11.1216 6.5565 11.3134 6.09324 11.655 5.75168C11.9966 5.41012 12.4598 5.21824 12.9429 5.21824Z" fill="#03A9F5"/>
<path d="M16.1252 17.6456L17.3531 18.3073L17.407 18.1832L17.0918 20.8124L15.7651 20.6532L16.1252 17.6456ZM17.225 9.67858C17.5065 9.81898 17.7951 10.0484 18.1038 10.3559C18.3066 10.5574 18.5159 10.7914 18.7298 11.0514C18.8923 11.2483 19.0522 11.4544 19.2069 11.6624L19.4987 12.0667L19.7262 12.4001L20.0447 12.8863L19.4675 13.3894L18.0206 12.8785L18.2761 12.6562L18.135 12.4606L17.9186 12.1759L17.6982 11.9009C17.5288 11.693 17.3494 11.4934 17.1607 11.3029C16.9442 11.0871 16.7577 10.9389 16.6277 10.8739C15.8763 10.4982 9.94112 10.4709 9.30022 10.8512C8.50072 11.3244 5.89357 14.369 5.89357 14.7577C5.89357 15.5045 6.23547 16.2774 6.58712 16.3404L6.78992 16.1994C6.882 16.1317 6.97155 16.0605 7.05837 15.9862L7.13767 15.9173C7.22152 15.8432 7.30927 15.7613 7.40807 15.6664L7.97357 15.1054C8.15687 14.9247 8.29012 14.8019 8.41427 14.7024C8.64437 14.5191 8.83157 14.4164 9.09092 14.4132C9.60702 14.4067 9.85987 14.7954 9.87612 15.2302L10.1251 20.7013L8.78997 20.7643L8.58847 16.3794L8.44677 16.5198C8.29077 16.6732 8.15622 16.8006 8.02557 16.9163C7.39442 17.4773 6.90497 17.7548 6.35247 17.656C5.16167 17.4435 4.55652 16.0765 4.55652 14.757C4.55652 13.7742 7.45422 10.391 8.61902 9.70133C9.66942 9.07863 16.0843 9.10788 17.225 9.67858Z" fill="#718096"/>
<path d="M15.7359 10.6555L21.3136 12.6244L20.1091 15.3622C20.1754 15.0268 20.1611 14.7447 20.0701 14.5724L20.0773 14.5893C20.0792 14.6004 20.0662 14.5945 20.0422 14.5802L19.9427 14.5152C19.7006 14.3697 19.4414 14.2547 19.1712 14.1727L19.5092 13.405L16.6232 12.3852L15.2289 17.164L17.3525 18.3073L18.02 16.7915C18.2592 17.1315 18.5407 17.4376 18.7123 17.5468L18.7448 17.565C18.8163 17.5234 18.9008 17.4565 18.995 17.3661L19.0665 17.2933C19.2141 17.1386 19.3655 16.9456 19.5046 16.735L17.9934 20.1702L13.6436 17.8283L15.7359 10.6555Z" fill="#989FAB"/>
<path d="M17.8392 12.9325C16.8791 13.4811 16.1024 14.9579 16.2649 16.0967C16.4209 17.192 17.6897 18.7286 18.5379 18.8982C19.418 19.0737 20.3722 18.074 21.0099 16.7987C21.4928 15.8315 21.6371 14.8175 21.3102 14.0687L21.2517 13.9472C20.8448 13.1802 18.7713 12.4002 17.8392 12.9325ZM20.0771 14.5894L20.0706 14.5725C20.2312 14.8767 20.1512 15.528 19.8139 16.2014C19.6098 16.6109 19.3329 17.0139 19.0664 17.2934L18.9949 17.3662C18.9006 17.4572 18.8161 17.5235 18.7446 17.5651L18.7121 17.5469C18.3865 17.3389 17.6611 16.4198 17.5876 15.9076C17.5051 15.3278 18.0056 14.3768 18.5028 14.0928C18.588 14.044 18.9448 14.0798 19.3699 14.2403C19.5792 14.3183 19.784 14.4184 19.9419 14.5159L20.042 14.5803C20.0661 14.5946 20.0791 14.6004 20.0771 14.5894Z" fill="#03A9F5"/>
<path d="M15.6819 10.2766L12.9428 14.0102L10.205 10.2766H11.2008L12.9434 12.5178L14.6867 10.2766H15.6819Z" fill="#989FAB"/>
<path d="M13.4407 13.2639V15.2555H12.4449V13.2639H13.4407Z" fill="#989FAB"/>
<path d="M12.9427 13.7617C13.2729 13.7617 13.5895 13.8929 13.8229 14.1263C14.0564 14.3597 14.1875 14.6763 14.1875 15.0065C14.1875 15.3366 14.0564 15.6532 13.8229 15.8866C13.5895 16.1201 13.2729 16.2512 12.9427 16.2512C12.6126 16.2512 12.296 16.1201 12.0626 15.8866C11.8291 15.6532 11.698 15.3366 11.698 15.0065C11.698 14.6763 11.8291 14.3597 12.0626 14.1263C12.296 13.8929 12.6126 13.7617 12.9427 13.7617Z" fill="#989FAB"/>
</svg>
