<svg width="18" height="20" viewBox="0 0 26 26" fill="none" xmlns="http://www.w3.org/2000/svg">
<path d="M18.3014 11.5258L18.2293 6.69236C18.2301 6.36389 18.1007 6.04849 17.8693 5.81537C17.6378 5.58225 17.3234 5.45046 16.9949 5.44891H13.1125C12.2486 5.44891 11.4498 5.82591 10.896 6.48826C10.6263 6.16159 10.2875 5.89884 9.90397 5.719C9.52045 5.53915 9.10178 5.44668 8.67818 5.44826H4.77948C4.45101 5.44998 4.13664 5.58194 3.90535 5.81518C3.67406 6.04842 3.54475 6.36389 3.54578 6.69236V17.0358C3.54578 17.7216 4.09893 18.2793 4.77948 18.2793H8.80298C9.17176 18.6365 9.62654 18.8924 10.1233 19.0222C10.62 19.1521 11.1419 19.1514 11.6383 19.0203C11.7338 18.9943 12.0374 17.6631 11.9308 17.7437C11.7727 17.8641 11.5953 17.9568 11.4062 18.018V8.12106C11.4062 7.17401 12.3734 6.46681 13.2379 6.46681H16.8032C17.0242 6.46681 17.2101 6.65531 17.2101 6.87761L17.279 11.2274L18.3014 11.5258ZM8.99798 17.21H4.97123C4.86328 17.208 4.76037 17.1639 4.68438 17.0872C4.6084 17.0105 4.56533 16.9072 4.56433 16.7992V6.86981C4.56433 6.64686 4.75088 6.45836 4.97123 6.45836H8.53648C9.40098 6.45836 10.3682 7.16621 10.3682 8.11326V18.0219C10.0444 17.9183 9.75616 17.7259 9.53618 17.4668C9.40618 17.3062 9.20468 17.21 8.99798 17.21Z" fill="#718096"/>
<path d="M8.35581 12.0316H6.33041C6.19603 12.0316 6.06715 11.9782 5.97213 11.8832C5.87711 11.7882 5.82373 11.6593 5.82373 11.5249C5.82373 11.3905 5.87711 11.2617 5.97213 11.1666C6.06715 11.0716 6.19603 11.0182 6.33041 11.0182H8.35581C8.4901 11.0182 8.61889 11.0716 8.71385 11.1665C8.80881 11.2615 8.86216 11.3903 8.86216 11.5246C8.86216 11.6589 8.80881 11.7877 8.71385 11.8826C8.61889 11.9776 8.4901 12.0309 8.35581 12.0309V12.0316ZM8.35581 9.49919H6.33041C6.19934 9.49449 6.07521 9.43912 5.98414 9.34474C5.89308 9.25035 5.84219 9.12432 5.84219 8.99317C5.84219 8.86202 5.89308 8.73598 5.98414 8.6416C6.07521 8.54721 6.19934 8.49184 6.33041 8.48714H8.35581C8.42378 8.4847 8.49156 8.49599 8.55508 8.52032C8.6186 8.54466 8.67656 8.58154 8.72552 8.62877C8.77447 8.676 8.8134 8.7326 8.84 8.79521C8.86659 8.85782 8.88029 8.92515 8.88029 8.99317C8.88029 9.06119 8.86659 9.12851 8.84 9.19112C8.8134 9.25373 8.77447 9.31034 8.72552 9.35757C8.67656 9.4048 8.6186 9.44168 8.55508 9.46601C8.49156 9.49034 8.42378 9.50163 8.35581 9.49919ZM6.33041 13.55H8.35581C8.4901 13.55 8.61889 13.6033 8.71385 13.6983C8.80881 13.7933 8.86216 13.922 8.86216 14.0563C8.86216 14.1906 8.80881 14.3194 8.71385 14.4144C8.61889 14.5093 8.4901 14.5627 8.35581 14.5627H6.33041C6.19611 14.5627 6.06732 14.5093 5.97236 14.4144C5.8774 14.3194 5.82406 14.1906 5.82406 14.0563C5.82406 13.922 5.8774 13.7933 5.97236 13.6983C6.06732 13.6033 6.19611 13.55 6.33041 13.55ZM15.4441 9.49919H12.913C12.7819 9.49449 12.6578 9.43912 12.5667 9.34474C12.4756 9.25035 12.4247 9.12432 12.4247 8.99317C12.4247 8.86202 12.4756 8.73598 12.5667 8.6416C12.6578 8.54721 12.7819 8.49184 12.913 8.48714H15.4441C15.512 8.4847 15.5798 8.49599 15.6433 8.52032C15.7068 8.54466 15.7648 8.58154 15.8138 8.62877C15.8627 8.676 15.9017 8.7326 15.9282 8.79521C15.9548 8.85782 15.9685 8.92515 15.9685 8.99317C15.9685 9.06119 15.9548 9.12851 15.9282 9.19112C15.9017 9.25373 15.8627 9.31034 15.8138 9.35757C15.7648 9.4048 15.7068 9.44168 15.6433 9.46601C15.5798 9.49034 15.512 9.50163 15.4441 9.49919Z" fill="#989FAB"/>
<path d="M17.914 11.7727C17.9835 11.7727 18.0459 11.7838 18.1246 11.8072L18.2091 11.8345L18.1623 11.8273L18.2767 11.8748L18.2435 11.8501L19.3927 12.4968C19.7236 12.6769 19.888 13.0253 19.7886 13.3529L19.7606 13.4283L19.7496 13.4562C19.7236 13.5277 19.6813 13.687 19.6813 13.7832C19.6813 14.2902 20.0733 14.7088 20.5718 14.7536L20.6609 14.7582H20.7109C20.9904 14.7582 21.214 14.9629 21.3005 15.2548L21.3206 15.336L21.3297 15.3893V15.3809L21.3661 15.598C21.409 15.8677 21.4318 16.0809 21.4318 16.2922C21.4318 16.5177 21.4077 16.742 21.3622 17.0156L21.3323 17.1859L21.3362 17.1697L21.3271 17.2269C21.2647 17.5636 21.0639 17.7911 20.7837 17.8236L20.7122 17.8281H20.6615C20.1539 17.8281 19.7353 18.2142 19.6872 18.7076L19.6807 18.8246L19.6794 18.8935C19.6826 18.9637 19.6989 19.0391 19.7249 19.1145L19.7535 19.1886L19.7567 19.2087L19.7697 19.225C19.8835 19.4967 19.823 19.821 19.6384 20.0206L19.5799 20.0765L19.4915 20.1395L18.3118 20.7882C18.1727 20.8565 18.068 20.8857 17.9335 20.8857C17.7164 20.8857 17.5064 20.7999 17.355 20.6485C17.028 20.3228 16.7206 20.1395 16.5373 20.1395C16.473 20.142 16.4097 20.1565 16.3507 20.1824C16.2263 20.2368 16.1093 20.3067 16.0023 20.3904L15.8697 20.4951L15.7137 20.6257L15.6682 20.6725C15.5772 20.7544 15.4576 20.8116 15.327 20.8396L15.2262 20.8552L15.1398 20.8591C15.065 20.8591 14.9994 20.8461 14.9025 20.8155L14.8232 20.7882L13.6656 20.1499C13.3815 19.9582 13.245 19.5974 13.3386 19.2848L13.3588 19.2256L13.3737 19.1879L13.4049 19.0904C13.4202 19.0388 13.4319 18.9863 13.44 18.9331C13.4441 18.9064 13.4463 18.8795 13.4465 18.8525C13.4465 18.3455 13.0546 17.9269 12.556 17.8821L12.441 17.8782C12.1615 17.8782 11.9379 17.6728 11.8514 17.3809L11.8313 17.2997L11.8222 17.2451L11.8241 17.2698L11.8131 17.1976L11.7741 16.9578C11.7558 16.8339 11.7417 16.7095 11.7318 16.5847C11.7253 16.5044 11.7218 16.424 11.7214 16.3435C11.7214 16.2688 11.7247 16.1875 11.7318 16.1017C11.7409 15.9841 11.7552 15.8599 11.7747 15.7286L11.8209 15.44L11.8228 15.4439L11.8287 15.3991L11.8469 15.3198C11.9184 15.0611 12.0789 14.881 12.2954 14.8258L12.3701 14.8121L12.4416 14.8076H12.4923C13.0318 14.8076 13.4712 14.3701 13.4712 13.8326C13.4712 13.7364 13.4478 13.6356 13.4114 13.5362L13.3659 13.4244C13.2197 13.0968 13.3308 12.6886 13.5947 12.528L13.6305 12.5001L14.8343 11.854L14.8096 11.8722L14.8726 11.8332L14.8824 11.8299C14.9725 11.7951 15.0679 11.7759 15.1645 11.7734C15.3809 11.7734 15.5909 11.8598 15.743 12.0113C15.9861 12.2537 16.3397 12.4702 16.5386 12.4702C16.7342 12.4702 17.0878 12.2537 17.3335 12.0119C17.4785 11.867 17.7066 11.7734 17.9133 11.7734L17.914 11.7727ZM15.1775 12.7458L14.3325 13.2131L14.3546 13.2814C14.3903 13.4042 14.4157 13.531 14.4261 13.6584L14.4313 13.7851C14.4291 14.2398 14.2698 14.6798 13.9802 15.0305C13.6907 15.3812 13.2888 15.6209 12.8427 15.7091L12.7608 15.7215L12.727 16.0166L12.7205 16.0809C12.7074 16.2092 12.7052 16.3384 12.714 16.467L12.7335 16.6848L12.7601 16.8999L12.7621 16.9116L12.8446 16.9246C13.1996 16.9925 13.529 17.1571 13.7962 17.4004L13.8931 17.4947C14.2402 17.8587 14.4326 18.3403 14.4326 18.8512C14.4326 19.0189 14.404 19.1892 14.3565 19.3556L14.3344 19.4239L15.0904 19.8535L15.1703 19.7775C15.2106 19.7417 15.2522 19.7079 15.2958 19.6748L15.431 19.5792L15.4115 19.5909C15.795 19.3205 16.1551 19.1801 16.4859 19.1801C16.7895 19.1801 17.1132 19.29 17.4525 19.5051L17.5727 19.5851L17.6832 19.6507C17.7573 19.6982 17.8288 19.7508 17.8951 19.8067L17.9543 19.86L18.759 19.4219L18.7395 19.3595C18.7031 19.2365 18.6792 19.1102 18.668 18.9825L18.6621 18.8532C18.6621 18.3501 18.8532 17.8723 19.1997 17.509C19.4834 17.2085 19.8546 17.0052 20.2605 16.9279L20.343 16.9149L20.3515 16.8505C20.3658 16.7296 20.3775 16.5866 20.3827 16.4521L20.3853 16.3208C20.3853 16.2759 20.3833 16.2259 20.3794 16.1706L20.3664 16.0198L20.3307 15.7247L20.2488 15.7117C19.8939 15.6442 19.5646 15.48 19.2972 15.2372L19.2003 15.1423C18.8519 14.7769 18.6586 14.2907 18.6608 13.7858C18.6608 13.6363 18.6868 13.4731 18.7375 13.2963L18.7629 13.2157L17.9582 12.7679L17.9062 12.8134C17.8506 12.8607 17.7929 12.9056 17.7333 12.9479L17.6546 12.9999L17.6306 13.0201C17.2698 13.2684 16.9013 13.4068 16.5841 13.4068C16.2929 13.4068 16.0004 13.3119 15.6526 13.1078L15.5005 13.0136C15.4127 12.9543 15.3293 12.8886 15.2509 12.8173L15.1775 12.7458Z" fill="#03A9F5"/>
<path d="M16.5354 14.508C17.0151 14.508 17.4707 14.6971 17.8178 15.041C17.9871 15.2077 18.1215 15.4065 18.2134 15.6256C18.3052 15.8448 18.3526 16.08 18.3528 16.3176C18.3528 16.7999 18.1656 17.2536 17.8276 17.5916C17.6591 17.7628 17.458 17.8984 17.2361 17.9905C17.0143 18.0826 16.7762 18.1293 16.536 18.1278C16.057 18.1278 15.6007 17.938 15.2536 17.5948C15.0842 17.428 14.9497 17.2292 14.8579 17.0099C14.7661 16.7906 14.7187 16.5553 14.7186 16.3176C14.7186 15.8385 14.9091 15.3848 15.2536 15.0397C15.4216 14.8708 15.6213 14.7369 15.8413 14.6455C16.0613 14.5542 16.2972 14.5072 16.5354 14.5073V14.508ZM16.536 15.4934C16.0778 15.4934 15.7047 15.8652 15.7047 16.3208C15.7047 16.7765 16.0778 17.1483 16.5367 17.1483C16.9943 17.1483 17.368 16.7765 17.368 16.3215C17.3687 16.2122 17.3477 16.1039 17.306 16.0028C17.2644 15.9018 17.2031 15.8101 17.1257 15.733C17.0482 15.6559 16.9562 15.595 16.8549 15.5539C16.7537 15.5127 16.6453 15.4922 16.536 15.4934Z" fill="#03A9F5"/>
</svg>
