<svg width="18" height="20" viewBox="0 0 17 17" fill="none" xmlns="http://www.w3.org/2000/svg">
<path d="M6 6.83341L8.71508 8.86975C9.06383 9.13125 9.55517 9.07983 9.84225 8.75183L15.1667 2.66675" stroke="#03A9F5" stroke-width="2" stroke-linecap="round"/>
<path d="M16 8.5C16 10.0671 15.5092 11.5948 14.5963 12.8686C13.6836 14.1424 12.3947 15.0983 10.9108 15.602C9.42692 16.1057 7.8225 16.1319 6.32287 15.6771C4.82327 15.2222 3.50383 14.3089 2.54985 13.0658C1.59588 11.8225 1.05529 10.3117 1.00402 8.74542C0.952743 7.17917 1.39336 5.6362 2.26398 4.33323C3.1346 3.03025 4.39149 2.03271 5.85813 1.48071C7.32475 0.928702 8.9275 0.849969 10.4412 1.25556" stroke="#718096" stroke-width="2" stroke-linecap="round"/>
</svg>
