<svg width="18" height="20" viewBox="0 0 20 20" fill="none" xmlns="http://www.w3.org/2000/svg">
<path d="M9.99988 1.54175C12.0412 1.54185 13.7166 3.15409 13.8192 5.17065L13.8251 5.36694C13.8167 7.44167 12.1937 9.11715 10.1415 9.18335H10.0936C10.0366 9.17721 9.97915 9.17855 9.92468 9.18237C7.77861 9.11213 6.17478 7.43304 6.17468 5.36694C6.17468 3.25975 7.89269 1.54175 9.99988 1.54175ZM9.99988 1.79175C8.03207 1.79175 6.42468 3.39913 6.42468 5.36694C6.42478 7.30297 7.93811 8.8654 9.86511 8.93335L9.92371 8.9353L9.96179 8.92749H9.99109C10.0259 8.92749 10.0695 8.92917 10.1112 8.93237L10.1415 8.93433L10.1727 8.93335C12.0745 8.84597 13.5654 7.28254 13.5751 5.3689V5.36694C13.5751 3.3992 11.9676 1.79185 9.99988 1.79175Z" fill="#292D32" stroke="#03A9F5"/>
<path d="M10.1475 10.8645C11.7063 10.8645 13.2374 11.2609 14.3799 12.0237L14.3809 12.0247C15.4274 12.7224 15.9492 13.6311 15.9492 14.5667C15.9492 15.5046 15.4332 16.4208 14.3809 17.1252C13.2292 17.893 11.6976 18.2912 10.1416 18.2913C8.58462 18.2913 7.04544 17.8927 5.90332 17.1262L5.90039 17.1243C4.84847 16.4279 4.33301 15.5203 4.33301 14.5833C4.33301 13.6454 4.84923 12.7291 5.90137 12.0247C7.05289 11.2609 8.58872 10.8645 10.1475 10.8645ZM10.1416 11.1204C8.67484 11.1204 7.17775 11.4833 6.03906 12.2424C5.15097 12.8345 4.58301 13.655 4.58301 14.592C4.5832 15.5236 5.16276 16.3433 6.04004 16.925V16.9241C7.17867 17.6871 8.67505 18.052 10.1416 18.052C11.6084 18.052 13.1045 17.6864 14.2432 16.9231L14.2441 16.9241C15.132 16.332 15.6992 15.5113 15.6992 14.5745C15.699 13.6429 15.1195 12.8232 14.2422 12.2415C13.1037 11.483 11.6077 11.1204 10.1416 11.1204Z" fill="#292D32" stroke="#718096"/>
</svg>