<svg width="18" height="20" viewBox="0 0 26 26" fill="none" xmlns="http://www.w3.org/2000/svg">
<path d="M17.5175 5.16748C17.8627 5.16742 18.1951 5.29814 18.4477 5.53332C18.7004 5.7685 18.8546 6.09068 18.8792 6.43498L18.8825 6.53248V11.2976C18.8828 11.4724 18.816 11.6407 18.696 11.7677C18.5759 11.8948 18.4116 11.9709 18.2371 11.9804C18.0625 11.9899 17.891 11.932 17.7578 11.8188C17.6247 11.7056 17.54 11.5455 17.5214 11.3717L17.5175 11.2976V6.53248H6.53248V19.4675H11.3386C11.5134 19.467 11.6818 19.5336 11.809 19.6537C11.9361 19.7737 12.0124 19.938 12.022 20.1126C12.0316 20.2872 11.9738 20.4588 11.8605 20.592C11.7473 20.7252 11.5872 20.8099 11.4133 20.8286L11.3386 20.8325H6.53248C6.1873 20.8325 5.85491 20.7018 5.60224 20.4666C5.34957 20.2315 5.19539 19.9093 5.17073 19.565L5.16748 19.4675V6.53248C5.16742 6.1873 5.29814 5.85491 5.53332 5.60224C5.7685 5.34957 6.09068 5.19539 6.43498 5.17073L6.53248 5.16748H17.5175Z" fill="#718096"/>
<path d="M13 8.74243V10.1074H8.44995V8.74243H13Z" fill="#989FAB"/>
<path d="M15.6 12.3501C12.7576 12.3501 10.4 14.2026 10.4 16.5751C10.4 18.9476 12.7576 20.8001 15.6 20.8001C18.4425 20.8001 20.8 18.9476 20.8 16.5751C20.8 14.2026 18.4425 12.3501 15.6 12.3501ZM15.6 13.6501C17.784 13.6501 19.5 14.9988 19.5 16.5751C19.5 18.1513 17.784 19.5001 15.6 19.5001C13.416 19.5001 11.7 18.1513 11.7 16.5751C11.7 14.9988 13.416 13.6501 15.6 13.6501Z" fill="#03A9F5"/>
<path d="M15.925 14.3C15.3217 14.3 14.743 14.5397 14.3164 14.9664C13.8897 15.393 13.65 15.9717 13.65 16.575C13.65 17.1784 13.8897 17.7571 14.3164 18.1837C14.743 18.6104 15.3217 18.85 15.925 18.85C16.5284 18.85 17.107 18.6104 17.5337 18.1837C17.9603 17.7571 18.2 17.1784 18.2 16.575C18.2 15.9717 17.9603 15.393 17.5337 14.9664C17.107 14.5397 16.5284 14.3 15.925 14.3ZM15.925 15.6C16.1836 15.6 16.4316 15.7028 16.6145 15.8856C16.7973 16.0685 16.9 16.3165 16.9 16.575C16.9 16.8336 16.7973 17.0816 16.6145 17.2645C16.4316 17.4473 16.1836 17.55 15.925 17.55C15.6664 17.55 15.4184 17.4473 15.2356 17.2645C15.0527 17.0816 14.95 16.8336 14.95 16.575C14.95 16.3165 15.0527 16.0685 15.2356 15.8856C15.4184 15.7028 15.6664 15.6 15.925 15.6Z" fill="#03A9F5"/>
<path d="M11.05 11.3425V12.7075H8.44995V11.3425H11.05Z" fill="#989FAB"/>
<path d="M16.9949 15.0449C17.0522 14.9873 17.129 14.9533 17.2102 14.9496C17.2914 14.9458 17.371 14.9726 17.4334 15.0246C17.4958 15.0767 17.5364 15.1502 17.5473 15.2307C17.5582 15.3112 17.5385 15.3929 17.4921 15.4596L17.4551 15.5051L16.1564 16.8032C16.0991 16.8608 16.0223 16.8948 15.9411 16.8985C15.8599 16.9023 15.7803 16.8755 15.7179 16.8235C15.6555 16.7714 15.6149 16.6979 15.604 16.6174C15.5931 16.5369 15.6128 16.4552 15.6591 16.3885L15.6968 16.343L16.9949 15.0449Z" fill="#03A9F5"/>
</svg>
