<svg width="18" height="20" viewBox="0 0 17 19" fill="none" xmlns="http://www.w3.org/2000/svg">
<path fill-rule="evenodd" clip-rule="evenodd" d="M10.3505 0.502227C9.17447 -0.167409 7.73255 -0.167409 6.55667 0.502227L4.2317 1.82614L4.22182 1.83184L1.91281 3.18331C0.74491 3.86689 0.0239587 5.11559 0.0159086 6.4688L0 9.14413V9.15554L0.0159086 11.8309C0.0239587 13.1842 0.74491 14.4329 1.91281 15.1165L4.22182 16.4679L4.2317 16.4737L6.55667 17.7975C7.73255 18.4672 9.17447 18.4672 10.3505 17.7975L12.6753 16.4737L12.6853 16.4679L14.9942 15.1165C16.1621 14.4329 16.8831 13.1842 16.8911 11.8309L16.9071 9.15554V9.14413L16.8911 6.4688C16.8831 5.11558 16.1621 3.86688 14.9942 3.18331L12.6853 1.83184L12.6753 1.82614L10.3505 0.502227ZM7.50504 2.16778C8.09308 1.83297 8.81404 1.83297 9.40199 2.16778L11.7219 3.48886L14.026 4.83746C14.61 5.17925 14.9704 5.8036 14.9745 6.4802L14.9904 9.14988L14.9745 11.8195C14.9704 12.4962 14.61 13.1205 14.026 13.4623L11.7219 14.8109L9.40199 16.132C8.81404 16.4668 8.09308 16.4668 7.50504 16.132L5.1851 14.8109L2.88102 13.4623C2.29706 13.1205 1.93659 12.4962 1.93257 11.8195L1.91669 9.14988L1.93257 6.4802C1.93659 5.8036 2.29706 5.17925 2.88102 4.83746L5.18508 3.48887L7.50504 2.16778ZM7.49517 9.14988C7.49517 8.62059 7.92422 8.19155 8.45351 8.19155C8.98281 8.19155 9.41186 8.62059 9.41186 9.14988C9.41186 9.67917 8.98281 10.1082 8.45351 10.1082C7.92422 10.1082 7.49517 9.67917 7.49517 9.14988ZM8.45351 6.27488C6.86573 6.27488 5.57849 7.56202 5.57849 9.14988C5.57849 10.7376 6.86573 12.0249 8.45351 12.0249C10.0414 12.0249 11.3285 10.7376 11.3285 9.14988C11.3285 7.56202 10.0414 6.27488 8.45351 6.27488Z" fill="#718096"/>
</svg>
