<svg width="18" height="20" viewBox="0 0 16 18" fill="none" xmlns="http://www.w3.org/2000/svg">
<path d="M14.9878 10.8926C14.9878 11.6006 14.8013 12.2688 14.4593 12.8416C13.8221 13.9314 12.6486 14.6712 11.2963 14.6712C10.5658 14.6712 9.88192 14.4485 9.30682 14.0587C8.82499 13.7564 8.42864 13.3348 8.14109 12.8416C7.79915 12.2688 7.60486 11.6006 7.60486 10.8926C7.60486 8.80842 9.26019 7.11401 11.2963 7.11401C11.5761 7.11401 11.848 7.14583 12.1045 7.20947C13.7598 7.58336 14.9878 9.0948 14.9878 10.8926Z" stroke="#03A9F5" stroke-width="1.5" stroke-miterlimit="10"/>
<path d="M9.8573 10.8929L10.7666 11.8236L12.7327 9.96216" stroke="#03A9F5" stroke-width="1.5"/>
<path opacity="0.4" d="M14.257 2.3569V4.1229C14.257 4.76726 13.8605 5.57072 13.472 5.97643L12.1042 7.20944C11.8477 7.1458 11.5758 7.11398 11.296 7.11398C9.25986 7.11398 7.60453 8.80839 7.60453 10.8926C7.60453 11.6006 7.79881 12.2688 8.14076 12.8416C8.42831 13.3348 8.82466 13.7564 9.30649 14.0587V14.3291C9.30649 14.8144 8.99555 15.4588 8.5992 15.6974L7.50342 16.4213C6.48535 17.0657 5.07096 16.3418 5.07096 15.053V10.7971C5.07096 10.2323 4.75234 9.50843 4.44148 9.11068L1.45719 5.89687C1.06861 5.49117 0.75 4.76727 0.75 4.28997V2.43645C0.75 1.4739 1.45722 0.75 2.31986 0.75H12.687C13.5497 0.75 14.257 1.47389 14.257 2.3569Z" stroke="black" stroke-width="1.5" stroke-miterlimit="10"/>
</svg>
