<?xml version="1.0" encoding="UTF-8"?>
<svg id="uuid-47e6dc70-58fc-439c-91e4-87049f97d83f" data-name="Layer 1" xmlns="http://www.w3.org/2000/svg" viewBox="0 0 757 189.24">
  <defs>
    <style>
      .uuid-a6295682-1600-4b42-9796-2f9f913e0745 {
        fill: #1cb75e;
      }

      .uuid-0049de23-8b2a-48d3-ba59-eb2c7c617b4a {
        fill: #03a9f5;
      }

      .uuid-fd4fe5ec-0aca-4b52-8757-d1ac9a2904c2 {
        fill: none;
      }

      .uuid-ba10d96d-ac3c-487b-b5cd-54ab2bfe8de3 {
        fill: #ffde17;
      }

      .uuid-0cc4a618-d141-4549-8c9d-9fccaf5fb81f {
        fill: #fff;
        stroke: #fff;
        stroke-miterlimit: 10;
        stroke-width: 15px;
      }

      .uuid-cbf59107-8187-4c23-aee8-bb83bdc40946 {
        fill: #ed1c24;
      }
    </style>
  </defs>
  <rect class="uuid-0049de23-8b2a-48d3-ba59-eb2c7c617b4a" width="190" height="180"/>
  <rect class="uuid-ba10d96d-ac3c-487b-b5cd-54ab2bfe8de3" x="189" width="190" height="180"/>
  <rect class="uuid-cbf59107-8187-4c23-aee8-bb83bdc40946" x="377" width="190" height="180"/>
  <rect class="uuid-a6295682-1600-4b42-9796-2f9f913e0745" x="567" width="190" height="180"/>
  <g>
    <rect class="uuid-fd4fe5ec-0aca-4b52-8757-d1ac9a2904c2" x="69.27" y="29.86" width="51.21" height="120.29"/>
    <path class="uuid-0cc4a618-d141-4549-8c9d-9fccaf5fb81f" d="M106.76,140.31h-21.18V55.68h-10.55v-21.18h31.73v105.81Z"/>
  </g>
  <g>
    <rect class="uuid-fd4fe5ec-0aca-4b52-8757-d1ac9a2904c2" x="232.12" y="32.47" width="104.61" height="119.53"/>
    <path class="uuid-0cc4a618-d141-4549-8c9d-9fccaf5fb81f" d="M326.72,90.02c0,4.87-.63,9.55-1.88,14.06-1.25,4.5-3.04,8.71-5.35,12.62-2.31,3.91-5.07,7.48-8.27,10.7-3.2,3.22-6.76,5.99-10.7,8.3-3.94,2.31-8.15,4.1-12.65,5.35-4.5,1.25-9.19,1.88-14.06,1.88h-31.88V37.12h31.88c4.87,0,9.56.63,14.06,1.88,4.5,1.25,8.72,3.04,12.65,5.35,3.93,2.31,7.5,5.08,10.7,8.3,3.2,3.22,5.95,6.79,8.27,10.7,2.31,3.91,4.09,8.12,5.35,12.62,1.26,4.5,1.88,9.19,1.88,14.06ZM305.54,90.02c0-4.38-.82-8.49-2.47-12.32-1.65-3.84-3.91-7.19-6.79-10.07-2.88-2.88-6.25-5.15-10.11-6.83-3.86-1.67-7.98-2.51-12.36-2.51h-10.55v63.46h10.55c4.38,0,8.5-.82,12.36-2.47,3.86-1.65,7.23-3.91,10.11-6.79,2.88-2.88,5.14-6.25,6.79-10.11,1.65-3.86,2.47-7.98,2.47-12.36Z"/>
  </g>
  <g>
    <rect class="uuid-fd4fe5ec-0aca-4b52-8757-d1ac9a2904c2" x="414.07" y="29.92" width="122.9" height="124.63"/>
    <path class="uuid-0cc4a618-d141-4549-8c9d-9fccaf5fb81f" d="M527.56,87.91c0,5.02-.65,9.85-1.96,14.5-1.3,4.65-3.14,9-5.5,13.06-2.36,4.06-5.21,7.76-8.56,11.1s-7.04,6.21-11.07,8.6-8.39,4.23-13.06,5.53c-4.67,1.3-9.52,1.96-14.54,1.96s-9.85-.65-14.5-1.96c-4.65-1.3-9-3.15-13.06-5.53s-7.76-5.25-11.1-8.6c-3.35-3.34-6.21-7.05-8.6-11.1-2.39-4.06-4.23-8.41-5.53-13.06-1.3-4.65-1.96-9.48-1.96-14.5s.65-9.86,1.96-14.54c1.3-4.67,3.15-9.03,5.53-13.06,2.38-4.03,5.25-7.72,8.6-11.07s7.05-6.2,11.1-8.56,8.41-4.19,13.06-5.5c4.65-1.3,9.48-1.96,14.5-1.96s9.86.65,14.54,1.96c4.67,1.3,9.03,3.14,13.06,5.5s7.72,5.21,11.07,8.56c3.34,3.35,6.2,7.04,8.56,11.07,2.36,4.03,4.19,8.39,5.5,13.06,1.3,4.67,1.96,9.52,1.96,14.54ZM506.53,87.91c0-4.62-.89-8.99-2.66-13.1-1.77-4.11-4.17-7.67-7.19-10.7-3.03-3.02-6.59-5.42-10.7-7.19-4.11-1.77-8.47-2.66-13.1-2.66s-9.05.89-13.13,2.66c-4.08,1.77-7.65,4.17-10.7,7.19-3.05,3.03-5.46,6.59-7.23,10.7-1.77,4.11-2.66,8.47-2.66,13.1s.89,8.96,2.66,13.02c1.77,4.06,4.18,7.61,7.23,10.66,3.05,3.05,6.62,5.46,10.7,7.23,4.08,1.77,8.46,2.66,13.13,2.66s8.99-.89,13.1-2.66c4.11-1.77,7.67-4.18,10.7-7.23,3.03-3.05,5.42-6.6,7.19-10.66,1.77-4.06,2.66-8.4,2.66-13.02Z"/>
  </g>
  <g>
    <rect class="uuid-fd4fe5ec-0aca-4b52-8757-d1ac9a2904c2" x="618.22" y="29.92" width="95.95" height="119.53"/>
    <path class="uuid-0cc4a618-d141-4549-8c9d-9fccaf5fb81f" d="M672.45,140.37h-21.1V55.74h-31.8v-21.18h84.63v21.18h-31.73v84.63Z"/>
  </g>
</svg>